<svg version="1" xmlns="http://www.w3.org/2000/svg" width="346.667" height="346.667" viewBox="0 0 260.000000 260.000000"><path d="M60.3 25.3c-2.6 4.5-5.8 10.2-7.2 12.7-1.3 2.5-2.8 4.6-3.2 4.8-.5.2-.9.8-.9 1.2 0 .5-5.8 11.1-13 23.5C28.9 80 23 90.6 23 91.1s-.4.9-1 .9c-.5 0-1 .4-1 .9 0 .4-4.7 9-10.5 19L0 130l5.6 9.8c3.1 5.3 6.7 11.6 8 13.9 1.3 2.3 5.3 9.2 8.9 15.3 3.6 6.1 6.5 11.5 6.5 12.1 0 .5.4.9.8.9.5 0 1.4 1.6 2.2 3.5.8 1.9 1.6 3.5 1.9 3.5.3 0 2.4 3.5 4.6 7.8 2.2 4.2 4.3 7.9 4.6 8.2.3.3 1.7 2.5 3.1 5 1.4 2.5 6.2 10.8 10.6 18.5l8.1 14h130.3l2.5-4.5c1.4-2.5 4.5-7.8 6.9-11.8 2.4-4 4.4-7.5 4.4-7.7 0-.3 1.5-2.8 3.2-5.7 3.1-5 3.9-6.5 8.6-14.8 1-1.9 6.8-12.1 12.9-22.5 6-10.5 14.4-25 18.6-32.3l7.7-13.3-8.7-15.2c-4.8-8.3-9-15.4-9.3-15.7-.3-.3-1.1-1.6-1.8-3s-2.1-3.9-3-5.5C230 77.7 227.5 73.4 227 73c-.3-.3-1.1-1.6-1.7-3-1.5-3.1-6.4-11.6-10.9-19.1-1.9-3.1-3.4-6.2-3.4-6.8 0-.6-.4-1.1-.8-1.1-.5 0-1.4-1.2-2.1-2.7-.7-1.5-4-7.3-7.4-13l-6-10.2H65.1l-4.8 8.2zm114 50.9c-1.5 2.9-3 5.5-3.4 5.8-.3.3-1.2 2-2 3.7-.8 1.8-1.7 3.3-2.1 3.3-.5 0-.8.6-.8 1.4 0 .7-.9 2.5-2.1 4-1.1 1.4-1.7 2.6-1.4 2.6.4 0 .3.6-.3 1.2-1 1.3-5.6 9.2-11.5 19.8-1.7 3-4.3 7.7-5.9 10.5-1.6 2.7-3.6 6.6-4.6 8.5-.9 1.9-1.9 3.7-2.2 4-.9.8-13 23-13 23.8 0 .4 10.1.7 22.5.7 14.4 0 22.6.3 22.7 1 0 .5.2 6.1.2 12.2l.2 11.3h-43.8c-24.1 0-43.8-.2-43.8-.5s2-4 4.4-8.3c2.4-4.2 5.3-9.4 6.5-11.5 1.2-2.1 2.9-4.9 3.7-6.3.9-1.3 1.3-2.4.9-2.4-.3 0 .1-.7.9-1.6.9-.8 1.6-2.1 1.6-2.9 0-.7.4-1.5.8-1.7 1-.4 12.2-20.5 12.2-21.8 0-.6.4-1 .9-1s1.1-.8 1.4-1.8c.3-.9 1.9-4 3.5-6.7 1.5-2.8 4.5-7.9 6.4-11.5 2-3.6 4.8-8.5 6.2-11 1.4-2.5 2.6-4.7 2.6-5 0-.3-10.2-.5-22.7-.5-12.6.1-23.5-.1-24.3-.3-1.2-.2-1.5-2.2-1.4-11 .1-5.9.2-11.3.3-12 .1-.9 9.8-1.2 45.2-1.2h45l-2.8 5.2z"/></svg>